<?xml version="1.0" encoding="UTF-8"?>
<svg width="100pt" height="100pt" version="1.1" viewBox="0 0 100 100" xmlns="http://www.w3.org/2000/svg">
 <path d="m73.055 17.219-6.4453 4.6016c-2.6758-1.5742-5.5-2.7461-8.4492-3.4922l-1.3281-7.8203c-0.25-1.4492-1.5-2.4961-2.9492-2.4961l-7.7969 0.007812c-1.4492 0-2.6992 1.0508-2.9453 2.5l-1.3203 7.8242c-2.9961 0.75391-5.8945 1.9531-8.6172 3.6289l-6.4023-4.543c-1.1992-0.84766-2.8242-0.72266-3.8711 0.32812l-5.5469 5.5547c-1.0234 1.0234-1.1719 2.6758-0.32031 3.875l4.6289 6.5195c-1.5703 2.6758-2.6953 5.5508-3.4414 8.4492l-7.7695 1.2305c-1.4492 0.25-2.4961 1.5-2.4961 2.9492l0.007813 7.7969c0 1.4492 1.0508 2.6992 2.5 2.9453l7.8711 1.3203c0.77734 2.9219 1.9531 5.7461 3.5547 8.3945l-4.543 6.4023c-0.84766 1.1992-0.72266 2.8242 0.32812 3.8711l5.5547 5.5469c1.0234 1.0234 2.6758 1.1719 3.875 0.32031l6.5195-4.6289c2.6758 1.5742 5.5508 2.6953 8.4492 3.4414l1.3047 7.7461c0.25 1.4492 1.5 2.4961 2.9492 2.4961l7.7969-0.007812c1.4492 0 2.6992-1.0508 2.9453-2.5l1.3203-7.8711c2.8477-0.75391 5.6484-1.9023 8.2188-3.4297l6.4492 4.5938c1.1992 0.84766 2.8242 0.72266 3.8711-0.32813l5.5469-5.5547c1.0234-1.0234 1.1719-2.6758 0.32031-3.875l-4.6016-6.4453c1.5742-2.6758 2.7461-5.5 3.4922-8.4492l7.8203-1.3281c1.4492-0.25 2.4961-1.5 2.4961-2.9492l-0.007812-7.7969c0-1.4492-1.0508-2.6992-2.5-2.9453l-7.8242-1.3203c-0.75391-2.9492-1.9297-5.7734-3.5039-8.4453l4.5938-6.4492c0.84766-1.1992 0.72266-2.8242-0.32812-3.8711l-5.5547-5.5469c-1.0508-0.94922-2.6758-1.0742-3.8516-0.25zm-34.973 44.754c-6.7227-6.7109-6.7266-17.598-0.015625-24.32 6.7109-6.7227 17.598-6.7266 24.32-0.019532 6.7227 6.7109 6.7266 17.598 0.015625 24.32-6.7109 6.7227-17.598 6.7305-24.32 0.019531z"/>
</svg>
