<?xml version="1.0" encoding="UTF-8"?>
<svg width="100pt" height="100pt" version="1.1" viewBox="0 0 100 100" xmlns="http://www.w3.org/2000/svg">
 <path d="m8.8242 57.363h15.625v34.742h-15.625zm22.852 34.742h15.625v-48.699h-15.625zm21.949 0h15.625v-37.719h-15.625zm21.938-58.773v58.773h15.625v-58.773zm-58.895 8.3359c3.6914-0.007813 6.6797-2.9961 6.6875-6.6875 0-0.46875-0.050781-0.9375-0.14844-1.3984l10.73-5.1133c1.2812 1.9102 3.4531 3.0312 5.75 2.9609 2.3008-0.070313 4.4023-1.3203 5.5625-3.3047l9.5 3.957c0.1875 3.5938 3.1836 6.3984 6.7812 6.3398 3.6016-0.054687 6.5078-2.9492 6.582-6.5469 0.003907-0.70703-0.10938-1.4102-0.33203-2.082l11.582-9.8945v-0.003907c1.1406 0.87891 2.5312 1.3594 3.9688 1.375 2.9922 0.003907 5.6211-1.9727 6.4453-4.8438 0.82812-2.875-0.34766-5.9453-2.8828-7.5312-2.5352-1.5859-5.8125-1.3008-8.0312 0.69922-2.2227 2-2.8516 5.2305-1.5391 7.918l-11.199 9.5703c-1.5352-1.5156-3.7109-2.1953-5.8359-1.8281-2.125 0.36719-3.9453 1.7383-4.8828 3.6836l-9.25-3.8555v-0.36328c0-3.6953-2.9922-6.6875-6.6875-6.6875s-6.6875 2.9922-6.6875 6.6875v0.70703l-10.906 5.3047c-1.4531-1.7656-3.707-2.668-5.9766-2.3906-2.2695 0.28125-4.2422 1.6992-5.2227 3.7656-0.98438 2.0625-0.84375 4.4883 0.37109 6.4258 1.2109 1.9375 3.332 3.1211 5.6211 3.1367z"/>
</svg>
